HIERARCHY
ROOT Spine
{
    OFFSET 0.0 0.0 -0.0
    CHANNELS 6 Xposition Yposition Zposition Zrotation Xrotation Yrotation
    JOINT ShoulderCenter
    {
        OFFSET 0.0 0.22473858296871185 0.0
        CHANNELS 3 Zrotation Xrotation Yrotation
        JOINT LeftShoulder
        {
            OFFSET 0.17376044392585754 0.0 0.0
            CHANNELS 3 Zrotation Xrotation Yrotation
            JOINT LeftElbow
            {
                OFFSET 0.2362436056137085 0.0 0.0
                CHANNELS 3 Zrotation Xrotation Yrotation
                JOINT LeftHand
                {
                    OFFSET 0.3208072781562805 0.0 0.0
                    CHANNELS 3 Zrotation Xrotation Yrotation
                    End Site
                    {
                        OFFSET 0.12832291424274445 0.0 0.0
                    }
                }
            }
        }
        JOINT RightShoulder
        {
            OFFSET -0.17376044392585754 0.0 0.0
            CHANNELS 3 Zrotation Xrotation Yrotation
            JOINT RightElbow
            {
                OFFSET -0.2362436056137085 0.0 0.0
                CHANNELS 3 Zrotation Xrotation Yrotation
                JOINT RightHand
                {
                    OFFSET -0.3208072781562805 0.0 0.0
                    CHANNELS 3 Zrotation Xrotation Yrotation
                    End Site
                    {
                        OFFSET -0.12832291424274445 0.0 0.0
                    }
                }
            }
        }
        End Site
        {
            OFFSET 0.0 0.08989543467760086 0.0
        }
    }
    JOINT LeftHip
    {
        OFFSET 0.21580990322694008 -0.21580990322694008 0.0
        CHANNELS 3 Zrotation Xrotation Yrotation
        JOINT LeftKnee
        {
            OFFSET 0.0 -0.3208352029323578 0.0
            CHANNELS 3 Zrotation Xrotation Yrotation
            JOINT LeftFoot
            {
                OFFSET 0.0 -0.3814619779586792 0.0
                CHANNELS 3 Zrotation Xrotation Yrotation
                End Site
                {
                    OFFSET 0.0 0.0 0.15258479118347168
                }
            }
        }
    }
    JOINT RightHip
    {
        OFFSET -0.21580990322694008 -0.21580990322694008 0.0
        CHANNELS 3 Zrotation Xrotation Yrotation
        JOINT RightKnee
        {
            OFFSET 0.0 -0.3208352029323578 0.0
            CHANNELS 3 Zrotation Xrotation Yrotation
            JOINT RightFoot
            {
                OFFSET 0.0 -0.3814619779586792 0.0
                CHANNELS 3 Zrotation Xrotation Yrotation
                End Site
                {
                    OFFSET 0.0 0.0 0.15258479118347168
                }
            }
        }
    }
}
MOTION
Frames: 11
Frame Time: 0.03333333333333333
-0.7038142085075378 0.2444441020488739 3.3422129154205322 -3.6246393593023623 -14.560367233505373 -167.52628703738282 1.1946161807117126e-07 3.063642036486366e-07 4.182032667815238 92.72803993774228 -44.31490775107817 174.79485778397864 3.4569227003865e-06 6.523882679187475e-07 27.42423475118015 4.4139062980501586e-32 -1.5902773407317584e-15 3.1805546814635168e-15 -104.86971324438933 -35.71020475637609 -175.76566962196304 2.9933656889273453e-06 8.142994507110401e-06 -42.62139142759963 6.3611093629270335e-15 6.3611093629270335e-15 3.1805546814635164e-15 -0.4723490269134087 10.175172073894826 -55.558150193529215 6.7161800843960435 -11.710734835470433 39.42430518863019 -2.4848083448933725e-16 3.232841526892206e-34 -1.4908850069360235e-16 -11.347459418271853 0.6579299321950813 51.54278965140363 -1.1416314187646779 -3.2111232058614787 -20.133871629697467 0.0 0.0 -1.4908850069360234e-15
-0.7260137796401978 0.24819129705429077 3.3531529903411865 -4.118723190665012 -14.8823192974398 -167.13643631212463 2.0123325129033428e-07 1.4266749074658859e-06 4.391622401784062 91.00268856738329 -40.814943927335904 176.71421891280727 -5.366564364792675e-06 -3.191743393329668e-06 23.73880641209668 6.3611093629270335e-15 -1.5902773407317584e-15 8.827812596100317e-32 -105.96615999172136 -42.84879582628708 -175.28071851225735 2.4077348994839916e-06 -3.5003216482297585e-06 -48.28799348995637 3.531125038440127e-31 6.3611093629270335e-15 -6.3611093629270335e-15 -2.480697801094873 9.707859811672456 -52.3328919067743 5.896810517025965 -12.486210049415076 38.525541935683634 3.9135731432070616e-16 3.3944836032368163e-34 9.93923337957349e-17 -14.443017157884341 -0.5240076839021136 61.419789220874335 0.20236438058837877 -3.9493939711027757 -26.544427355871495 0.0 0.0 -1.2424041724466863e-15
-0.732731819152832 0.24923530220985413 3.3573029041290283 -3.746549036984945 -14.605876991216315 -166.4502815425546 -3.0704530983963736e-07 -1.373314946656479e-06 3.6441036669888667 92.53052910862486 -46.13362763588856 177.24136732370266 -2.2192896046519363e-06 -2.2540520880700805e-06 24.312431684533824 6.3611093629270335e-15 -1.7655625192200634e-31 -3.1805546814635168e-15 -106.71070433553007 -43.73613923234476 -176.14568175966426 8.312329931856222e-06 1.0555006745466137e-06 -48.64596205537094 -4.4139062980501586e-32 1.5902773407317584e-15 3.1805546814635168e-15 -2.4910271905272574 9.722852898842453 -51.791432256496826 5.692744931432202 -12.382969163544546 37.82185509618073 -3.7272125173400585e-16 3.232841526892206e-34 -9.93923337957349e-17 -14.186001295134728 -0.4180424736048413 59.66075951869291 0.5568504127921025 -3.718123772810202 -23.79973597939071 2.758691436281349e-32 1.5902773407317582e-15 -1.9878466759146976e-15
-0.738646388053894 0.2507050931453705 3.3596420288085938 -3.4430663598335163 -14.384386318640797 -165.90476182921222 2.8529691786332434e-07 1.8758828709479353e-06 3.387888907121769 92.85742703787278 -46.18691769701043 176.46967650360375 1.3305246300648135e-06 1.8990965026799214e-06 26.115801544987143 0.0 0.0 3.1805546814635168e-15 -105.82634171594611 -43.27265407915345 -176.00600144575165 2.6121247290237175e-06 1.545508209054769e-06 -49.446091010424105 -6.3611093629270335e-15 1.590277340731758e-15 6.3611093629270335e-15 -2.12120804200048 9.874206809490774 -52.93172977871897 5.657150300877513 -12.625477930616752 38.62423154261376 6.708982531212105e-16 -8.728672122608956e-34 -1.4908850069360235e-16 -13.843441368482647 -0.25838113641866783 58.090461262160616 0.3545949161049783 -3.2178451937756227 -20.69742562688026 0.0 0.0 -2.981770013872046e-16
-0.755036473274231 0.2526688873767853 3.3665530681610107 -3.3625124885770394 -14.226999917627284 -165.41119882073932 4.346948532207789e-07 1.6049573068207682e-06 2.9509815403697632 91.54630141018124 -44.03306496940573 176.68347098675784 -8.634436463902398e-08 -8.771844647605848e-08 24.64182126688176 -1.3241718894150476e-31 4.770832022195277e-15 3.1805546814635176e-15 -107.24241712154003 -47.85777325915693 -177.0778965538365 5.555650124013926e-06 2.5582249440704623e-06 -50.247916995119276 -6.3611093629270335e-15 -6.3611093629270335e-15 3.1805546814635164e-15 -3.6318215841887147 9.603342413418268 -48.18534497175645 4.314253553970093 -12.347888605586125 33.88583069951076 7.454425034680117e-17 1.5902773407317584e-15 -1.034509288605506e-33 -13.796491763502186 0.3013714067681439 55.20486160918913 -1.2050323020513105 -2.3177742416626046 -16.39753211093088 7.951386703658791e-16 -1.793149433582877e-32 -2.584200678689107e-15
-0.7607865929603577 0.2526176869869232 3.368710994720459 -3.3759244201212737 -14.049237515263716 -165.33010769132437 2.3253176890551402e-07 -2.0924565958553876e-07 2.9340216586794456 92.0277973565955 -45.72432356703486 175.4590374002197 3.4871611256570775e-06 -2.7193333335684087e-06 26.947793302133565 6.361109362927032e-15 1.5902773407317582e-15 3.180554681463516e-15 -108.02588668570475 -49.28885542218661 -177.85486352499217 4.3895681000732994e-08 -1.7479527983446638e-06 -49.16233676062231 -1.7655625192200634e-31 -6.3611093629270335e-15 -3.1805546814635168e-15 -3.6842121347371917 9.75973736023354 -48.297631411853644 3.544080763712124 -12.006270681567178 31.748910803353173 3.3700213177616363e-16 -2.923027547231703e-34 -9.93923337957349e-17 -13.779953912582318 0.5066662938668715 55.34736468152001 -1.6249965586613717 -1.670472339510943 -12.225249779182965 0.0 0.0 -5.168401357378214e-15
-0.7687044739723206 0.2519392967224121 3.374298095703125 -3.1296652810579935 -13.902662794315347 -165.1270319840731 8.710014662295072e-08 -9.412290083024586e-07 2.8254016121173318 91.44151911211047 -44.78221085183639 175.5607780631363 2.6101705643219466e-06 -7.4571053591512045e-06 26.448700190415572 0.0 -1.5902773407317584e-15 0.0 -108.49669001920147 -51.44105626311744 -178.01001980418604 3.0779342172940137e-06 -4.739320194468565e-06 -48.37640709236342 0.0 0.0 0.0 -3.1656849203152637 9.93829381727046 -50.056750860783836 3.0772619027075137 -12.483947836383916 32.588164778364444 -7.454425034680117e-16 0.0 0.0 -13.946808333125569 0.290094757201934 55.923157065599106 -1.5304576669713887 -1.4340279632526145 -10.818682431032938 -7.951386703658794e-16 -1.5902773407317584e-15 -6.957463365701443e-15
-0.7773116827011108 0.25229328870773315 3.3768510818481445 -2.6835462527077647 -13.586191397919636 -164.8662235829737 6.019049009643927e-07 -9.670184176391857e-07 3.090062537508066 92.26190008944432 -46.47953678125244 175.66151983650346 1.7585344465154422e-06 2.100279556786134e-06 27.103958651612263 0.0 0.0 -3.1805546814635168e-15 -108.51583913741906 -52.55626724370611 -177.60629397921497 -1.935271435652281e-07 1.9302016890286496e-07 -48.48232179403238 0.0 0.0 -9.54166404439055e-15 -2.975532120260367 10.250650557175442 -51.308861825460326 3.5383549637047054 -12.58268528832636 33.53320959652225 -1.4163407565892223e-15 1.2284797802190383e-33 -9.93923337957349e-17 -13.55542449281416 0.5386063503285843 55.81541467165219 -2.194706448345019 -1.5398205036155161 -12.248235379816292 0.0 0.0 7.056855699497176e-15
-0.7831227779388428 0.2526646852493286 3.3782079219818115 -2.3287124440865457 -13.360748203595445 -164.50883807581505 4.6032597489094123e-07 1.1945432038368517e-06 2.830581707384374 91.79624427681469 -46.84843952588265 175.10765825849236 -4.413134885676653e-06 2.149352035827173e-06 27.794185602953583 -4.4139062980501586e-32 -1.5902773407317584e-15 -3.1805546814635168e-15 -107.67096444305669 -51.41015055268096 -177.26312190724556 5.525389333058148e-06 -3.922577124696854e-06 -47.15241603366953 -6.361109362927032e-15 -3.531125038440127e-31 6.361109362927032e-15 -2.584571863232952 10.402106250549528 -52.448435511396774 -3.023173210853567 -6.407585830712025 13.715801945188035 1.1927080055488184e-15 8.276074308844047e-33 7.95138670365879e-16 -13.505893892871345 0.8241319740057945 56.361562241360204 -2.171029453687965 -1.8326732947488036 -13.974800944599767 0.0 0.0 -1.5902773407317584e-15
-0.7898812890052795 0.25245681405067444 3.380053997039795 -2.5274879284492404 -13.30931119532754 -164.46288819481384 -1.8765858767774027e-07 8.818262094315731e-07 2.5335210114203237 91.02118996076852 -43.67658236592139 174.91850132570247 -1.8318097363677918e-06 -1.8188038567108185e-06 26.87472812581335 6.3611093629270335e-15 0.0 0.0 -107.02081492080492 -51.47030500944118 -176.05950177018408 3.481055077468453e-07 1.074270597590417e-06 -46.67032609241777 0.0 0.0 3.1805546814635176e-15 -3.270526794013881 10.839154750289737 -52.053753246486224 3.771543215605692 -13.386084121317595 34.77851268323345 -1.3697506001224714e-15 0.0 0.0 -14.530297995336275 0.9350975108551041 61.798178764415155 -2.1055540640425376 -2.157678923657954 -16.985479890478892 -7.951386703658792e-16 -4.827710013492361e-33 6.957463365701443e-16
-0.796282172203064 0.2532331049442291 3.3839380741119385 -2.1832062002895913 -13.248868989985496 -164.68330115426554 3.0001013518344453e-07 -3.531393551475639e-07 2.85567549324235 91.85829605638806 -45.53833211504022 175.70251503289066 -1.8958711145841209e-06 1.478438502754896e-06 27.292947245054275 0.0 3.1805546814635168e-15 0.0 -106.53938959746188 -52.508207785384 -175.24304930747397 9.73444433394796e-07 2.4539209959181333e-06 -47.28797998147014 -8.827812596100317e-32 -1.5902773407317588e-15 -6.361109362927035e-15 -3.1375386200104196 10.550334714396357 -52.12137223532193 3.5822980632140666 -13.625002619062547 35.470254089289014 -8.696829207126802e-17 0.0 0.0 -14.153298868704876 -0.1431051849771501 57.07737791557916 -0.7988510484345142 -1.858572705863443 -13.732555563466025 0.0 0.0 -6.460501696722767e-15
